<svg width="920" height="859" viewBox="0 0 920 859" fill="none" xmlns="http://www.w3.org/2000/svg">
    <path
        d="M38.2895 858.89H643.847C796.26 858.89 919.786 735.333 919.786 582.951C919.786 458.556 837.498 353.4 724.398 318.927L643.847 482.324L609.343 552.294H275.908C247.889 552.294 220.832 548.106 195.357 540.348L38.2895 858.921V858.89Z"
        fill="#7C3AED" />
    <path
        d="M310.412 306.981L275.908 376.951L195.357 540.349C220.832 548.106 247.889 552.295 275.908 552.295H609.343L643.847 482.325L724.398 318.928C698.923 311.17 671.866 306.981 643.847 306.981H310.412Z"
        fill="#06B6D4" />
    <path
        d="M881.497 0.386016H275.939C123.526 0.386016 0 123.943 0 276.325C0 400.719 82.2883 505.876 195.388 540.349L275.939 376.951L310.443 306.981H643.878C671.897 306.981 698.954 311.17 724.429 318.927L881.497 0.35498V0.386016Z"
        fill="#2563EB" />
</svg>